<svg width="1440" height="1141" viewBox="0 0 1440 1141" fill="none" xmlns="http://www.w3.org/2000/svg">
<path d="M1623 394C1520.87 590.764 1280.22 952.248 1134.7 824.077C989.171 695.905 834.93 981.287 776 1140" stroke="#FC3867"/>
<path d="M1488 259C1385.87 455.764 1145.22 817.248 999.696 689.077C854.171 560.905 699.93 846.287 641 1005" stroke="#FC3867"/>
<path d="M1534 298C1431.87 494.764 1191.22 856.248 1045.7 728.077C900.171 599.905 745.93 885.287 687 1044" stroke="#FC3867"/>
<path d="M1571 348C1468.87 544.764 1228.22 906.248 1082.7 778.077C937.171 649.905 782.93 935.287 724 1094" stroke="#FC3867"/>
<g opacity="0.3">
<path d="M420 -136C317.867 60.7638 77.2208 422.248 -68.304 294.077C-213.829 165.905 -368.07 451.287 -427 610" stroke="#FC3867"/>
<path d="M285 -271C182.867 -74.2362 -57.7792 287.248 -203.304 159.077C-348.829 30.9047 -503.07 316.287 -562 475" stroke="#FC3867"/>
<path d="M331 -232C228.867 -35.2362 -11.7792 326.248 -157.304 198.077C-302.829 69.9047 -457.07 355.287 -516 514" stroke="#FC3867"/>
<path d="M368 -182C265.867 14.7638 25.2208 376.248 -120.304 248.077C-265.829 119.905 -420.07 405.287 -479 564" stroke="#FC3867"/>
</g>
</svg>
